<?xml version="1.0" standalone="no"?>
<!DOCTYPE svg PUBLIC "-//W3C//DTD SVG 20010904//EN"
 "http://www.w3.org/TR/2001/REC-SVG-20010904/DTD/svg10.dtd">
<svg version="1.0" xmlns="http://www.w3.org/2000/svg"
 width="260.000000pt" height="260.000000pt" viewBox="0 0 260.000000 260.000000"
 preserveAspectRatio="xMidYMid meet">
<metadata>
Created by potrace 1.11, written by Peter Selinger 2001-2013
</metadata>
<g transform="translate(0.000000,260.000000) scale(0.100000,-0.100000)"
fill="#000000" stroke="none">
<path d="M0 1590 c0 -801 3 -1010 13 -1011 6 0 266 -1 577 -1 l565 -1 0 -286
0 -286 290 -3 290 -2 0 1297 0 1298 -868 3 -867 2 0 -1010z m1155 4 c0 -394
-1 -427 -17 -433 -13 -5 -447 -6 -540 -2 -17 1 -18 28 -18 431 l0 430 288 0
287 0 0 -426z"/>
<path d="M2020 866 l0 -291 290 0 290 0 -2 290 -3 290 -287 1 -288 1 0 -291z"/>
</g>
</svg>
